<svg xmlns="http://www.w3.org/2000/svg" viewBox="0 0 64 64">
  <rect width="64" height="64" fill="#000"/>
  <!-- DD in Pacifico style converted to paths -->
  <g fill="#fff" transform="translate(6, 16) scale(0.38)">
    <!-- First D -->
    <path d="M8,8 C8,8 8,72 8,72 C8,72 28,72 28,72 C52,72 68,56 68,40 C68,24 52,8 28,8 C28,8 8,8 8,8 Z M20,20 C20,20 26,20 26,20 C42,20 54,28 54,40 C54,52 42,60 26,60 C26,60 20,60 20,60 C20,60 20,20 20,20 Z"/>
    <!-- Second D (offset) -->
    <path d="M78,8 C78,8 78,72 78,72 C78,72 98,72 98,72 C122,72 138,56 138,40 C138,24 122,8 98,8 C98,8 78,8 78,8 Z M90,20 C90,20 96,20 96,20 C112,20 124,28 124,40 C124,52 112,60 96,60 C96,60 90,60 90,60 C90,60 90,20 90,20 Z"/>
  </g>
</svg>
